<svg width="37" height="32" viewBox="0 0 37 32" fill="none" xmlns="http://www.w3.org/2000/svg">
<path d="M3.52198 1L33.4774 31M26.9247 24.9172C24.3923 26.2834 21.5301 27.2497 18.4997 27.2497C11.8896 27.2497 6.08008 22.6522 2.7486 19.3353C1.86921 18.4597 1.42959 18.022 1.14972 17.1627C0.950125 16.5499 0.950063 15.4498 1.14972 14.837C1.42968 13.9778 1.87021 13.539 2.75134 12.6619C4.4305 10.9904 6.73867 8.99424 9.46121 7.42517M32.5413 20.9377C33.1648 20.3885 33.7359 19.8481 34.2484 19.338L34.2538 19.3323C35.1312 18.4589 35.5711 18.021 35.8505 17.1636C36.0501 16.5508 36.0497 15.4503 35.8501 14.8375C35.5703 13.9785 35.1301 13.5395 34.2514 12.6646C30.9199 9.34766 25.1098 4.75 18.4997 4.75C17.8678 4.75 17.2433 4.79201 16.6275 4.8709M20.9765 18.8125C20.3164 19.396 19.4493 19.75 18.4997 19.75C16.4317 19.75 14.7553 18.0711 14.7553 16C14.7553 14.9884 15.1552 14.0708 15.8054 13.3962" stroke="black" stroke-width="2" stroke-linecap="round" stroke-linejoin="round"/>
</svg>
