<svg width="64" height="64" viewBox="0 0 64 64" fill="none" xmlns="http://www.w3.org/2000/svg">
<path d="M12.585 26.585L30.585 8.585C30.7707 8.39905 30.9913 8.25153 31.2341 8.15088C31.4769 8.05023 31.7372 7.99843 32 7.99843C32.2628 7.99843 32.5231 8.05023 32.7659 8.15088C33.0087 8.25153 33.2292 8.39905 33.415 8.585L51.415 26.585C51.7903 26.9603 52.0011 27.4693 52.0011 28C52.0011 28.5307 51.7903 29.0397 51.415 29.415C51.0397 29.7903 50.5307 30.0011 50 30.0011C49.4693 30.0011 48.9603 29.7903 48.585 29.415L34 14.8275L34 54C34 54.5304 33.7893 55.0391 33.4142 55.4142C33.0391 55.7893 32.5304 56 32 56C31.4696 56 30.9608 55.7893 30.5858 55.4142C30.2107 55.0391 30 54.5304 30 54L30 14.8275L15.415 29.415C15.0397 29.7903 14.5307 30.0011 14 30.0011C13.4693 30.0011 12.9603 29.7903 12.585 29.415C12.2097 29.0397 11.9989 28.5307 11.9989 28C11.9989 27.4693 12.2097 26.9603 12.585 26.585Z" fill="white"/>
</svg>
