<svg width="29" height="33" viewBox="0 0 29 33" fill="none" xmlns="http://www.w3.org/2000/svg">
<path d="M9.82642 11.3333H6.40033C4.51015 11.3333 3.56436 11.3333 2.84241 11.7088C2.20736 12.039 1.69143 12.5655 1.36785 13.2137C1 13.9505 1 14.9157 1 16.8448V26.4892C1 28.4183 1 29.3823 1.36785 30.1191C1.69143 30.7672 2.20736 31.2947 2.84241 31.6249C3.56365 32 4.50835 32 6.39483 32H22.6052C24.4917 32 25.435 32 26.1562 31.6249C26.7913 31.2947 27.3089 30.7672 27.6325 30.1191C28 29.383 28 28.4203 28 26.495V16.8391C28 14.9138 28 13.9497 27.6325 13.2137C27.3089 12.5655 26.7913 12.039 26.1562 11.7088C25.4343 11.3333 24.4905 11.3333 22.6003 11.3333H19.1726M9.82642 11.3333H19.1726M9.82642 11.3333C9.61134 11.3333 9.4375 11.1554 9.4375 10.9359V6.16667C9.4375 3.3132 11.7041 1 14.5 1C17.2959 1 19.5625 3.3132 19.5625 6.16667V10.9359C19.5625 11.1554 19.3876 11.3333 19.1726 11.3333" stroke="black" stroke-width="2" stroke-linecap="round" stroke-linejoin="round"/>
</svg>
