<svg width="20" height="20" viewBox="0 0 20 20" fill="none" xmlns="http://www.w3.org/2000/svg">
<path d="M3.59961 17.9371L5.12357 16.64L5.13478 16.6309C5.45249 16.3605 5.61281 16.224 5.79168 16.1268C5.95216 16.0396 6.12328 15.9761 6.2998 15.9375C6.49877 15.8941 6.70603 15.8941 7.12207 15.8941H15.8031C16.921 15.8941 17.4806 15.8941 17.908 15.6624C18.2843 15.4584 18.5905 15.1326 18.7822 14.7322C19 14.2775 19 13.6828 19 12.4935V4.40108C19 3.21177 19 2.61622 18.7822 2.16152C18.5905 1.76117 18.2837 1.4359 17.9074 1.23191C17.4796 1 16.9203 1 15.8002 1H4.2002C3.08009 1 2.51962 1 2.0918 1.23191C1.71547 1.4359 1.40973 1.76117 1.21799 2.16152C1 2.61667 1 3.21293 1 4.40457V16.6082C1 17.7419 1 18.3087 1.21846 18.5998C1.40845 18.853 1.69644 19.0003 2.00098 19C2.35115 18.9996 2.76744 18.6453 3.59961 17.9371Z" stroke="black" stroke-linecap="round" stroke-linejoin="round"/>
</svg>
