<svg width="32" height="32" viewBox="0 0 32 32" fill="none" xmlns="http://www.w3.org/2000/svg">
<path d="M11.8372 3.09537C11.331 1.82984 10.1053 1 8.74231 1H4.15781C2.4138 1 1 2.4135 1 4.15755C1 18.9821 13.0177 31 27.8418 31C29.5858 31 30.9992 29.5861 30.9992 27.842L31 23.2566C31 21.8936 30.1704 20.6681 28.9049 20.1619L24.5109 18.4049C23.3742 17.9502 22.0799 18.1548 21.1394 18.9387L20.0054 19.8845C18.681 20.9882 16.7323 20.9004 15.5133 19.6813L12.3201 16.4851C11.101 15.266 11.011 13.3189 12.1146 11.9945L13.0602 10.8605C13.844 9.91993 14.0505 8.62527 13.5958 7.48849L11.8372 3.09537Z" stroke="black" stroke-width="2" stroke-linecap="round" stroke-linejoin="round"/>
</svg>
