<svg width="20" height="20" viewBox="0 0 20 20" fill="none" xmlns="http://www.w3.org/2000/svg">
<path d="M1 7H19M1 7V15.8002C1 16.9203 1 17.4801 1.24524 17.9079C1.46095 18.2842 1.80491 18.5905 2.22827 18.7822C2.7091 19 3.33887 19 4.59652 19H15.4035C16.6611 19 17.29 19 17.7708 18.7822C18.1942 18.5905 18.5393 18.2842 18.755 17.9079C19 17.4805 19 16.9215 19 15.8036V7M1 7V6.2002C1 5.08009 1 4.51962 1.24524 4.0918C1.46095 3.71547 1.80491 3.40973 2.22827 3.21799C2.70957 3 3.3401 3 4.60022 3H5.5M19 7V6.19691C19 5.07899 19 4.5192 18.755 4.0918C18.5393 3.71547 18.1942 3.40973 17.7708 3.21799C17.2895 3 16.6603 3 15.4002 3H14.5M5.5 3H14.5M5.5 3V1M14.5 3V1M13.375 11L8.875 15L6.625 13" stroke="black" stroke-width="2" stroke-linecap="round" stroke-linejoin="round"/>
</svg>
