<svg width="48" height="49" viewBox="0 0 48 49" fill="none" xmlns="http://www.w3.org/2000/svg">
<path d="M20.7258 27.8431L33.2576 15.0395M46.0771 7.22575L35.499 42.3501C34.551 45.4979 34.0766 47.0725 33.259 47.5945C32.5498 48.0472 31.6717 48.1229 30.8993 47.7954C30.0087 47.4179 29.2858 45.9433 27.8438 42.9967L21.1437 29.3061C20.9149 28.8385 20.8003 28.6057 20.6475 28.4031C20.5118 28.2233 20.3553 28.0613 20.1793 27.9227C19.9855 27.7701 19.7615 27.6557 19.3242 27.4323L5.89321 20.5712C3.0091 19.0979 1.56691 18.3606 1.19735 17.4506C0.876857 16.6615 0.949949 15.7635 1.39307 15.0389C1.90402 14.2035 3.44512 13.7181 6.52707 12.7492L40.9061 1.94174C43.329 1.18006 44.541 0.799521 45.3594 1.10648C46.0722 1.37386 46.6342 1.94746 46.8959 2.67577C47.1962 3.5115 46.8235 4.74911 46.0787 7.22209L46.0771 7.22575Z" stroke="#616161" stroke-width="2" stroke-linecap="round" stroke-linejoin="round"/>
</svg>
