<svg width="98" height="98" viewBox="0 0 98 98" fill="none" xmlns="http://www.w3.org/2000/svg">
<g clip-path="url(#clip0_28_9)">
<path d="M30.625 45.9375C30.625 45.1253 30.9477 44.3463 31.522 43.772C32.0963 43.1977 32.8753 42.875 33.6875 42.875H39.8125V36.75C39.8125 35.9378 40.1352 35.1588 40.7095 34.5845C41.2838 34.0102 42.0628 33.6875 42.875 33.6875C43.6872 33.6875 44.4662 34.0102 45.0405 34.5845C45.6148 35.1588 45.9375 35.9378 45.9375 36.75V42.875H52.0625C52.8747 42.875 53.6537 43.1977 54.228 43.772C54.8023 44.3463 55.125 45.1253 55.125 45.9375C55.125 46.7497 54.8023 47.5287 54.228 48.103C53.6537 48.6773 52.8747 49 52.0625 49H45.9375V55.125C45.9375 55.9372 45.6148 56.7162 45.0405 57.2905C44.4662 57.8648 43.6872 58.1875 42.875 58.1875C42.0628 58.1875 41.2838 57.8648 40.7095 57.2905C40.1352 56.7162 39.8125 55.9372 39.8125 55.125V49H33.6875C32.8753 49 32.0963 48.6773 31.522 48.103C30.9477 47.5287 30.625 46.7497 30.625 45.9375ZM98 45.9375V70.4375C98 72.062 97.3547 73.6199 96.206 74.7685C95.0574 75.9172 93.4995 76.5625 91.875 76.5625H85.3672C84.6925 79.1975 83.16 81.5331 81.0114 83.2009C78.8627 84.8687 76.22 85.774 73.5 85.774C70.78 85.774 68.1373 84.8687 65.9886 83.2009C63.84 81.5331 62.3075 79.1975 61.6328 76.5625H42.4922C41.8175 79.1975 40.285 81.5331 38.1364 83.2009C35.9877 84.8687 33.345 85.774 30.625 85.774C27.905 85.774 25.2623 84.8687 23.1136 83.2009C20.965 81.5331 19.4325 79.1975 18.7578 76.5625H12.25C10.6255 76.5625 9.06763 75.9172 7.91897 74.7685C6.77031 73.6199 6.125 72.062 6.125 70.4375V27.5625C6.125 25.938 6.77031 24.3801 7.91897 23.2315C9.06763 22.0828 10.6255 21.4375 12.25 21.4375H70.4375C71.2497 21.4375 72.0287 21.7602 72.603 22.3345C73.1773 22.9088 73.5 23.6878 73.5 24.5V27.5625H86.7377C87.963 27.5586 89.1611 27.9239 90.1758 28.6108C91.1905 29.2978 91.9747 30.2745 92.4263 31.4136L97.7856 44.812C97.928 45.1702 98.0007 45.5521 98 45.9375ZM73.5 33.6875V42.875H90.4127L86.7377 33.6875H73.5ZM12.25 70.4375H18.7578C19.4325 67.8025 20.965 65.4669 23.1136 63.7991C25.2623 62.1313 27.905 61.226 30.625 61.226C33.345 61.226 35.9877 62.1313 38.1364 63.7991C40.285 65.4669 41.8175 67.8025 42.4922 70.4375H61.6328C62.0436 68.8637 62.7627 67.387 63.7484 66.0932C64.7341 64.7993 65.9668 63.7139 67.375 62.8999V27.5625H12.25V70.4375ZM36.75 73.5C36.75 72.2886 36.3908 71.1044 35.7178 70.0971C35.0447 69.0899 34.0881 68.3048 32.9689 67.8412C31.8497 67.3777 30.6182 67.2564 29.4301 67.4927C28.2419 67.729 27.1506 68.3124 26.294 69.169C25.4374 70.0256 24.854 71.1169 24.6177 72.3051C24.3814 73.4932 24.5027 74.7247 24.9662 75.8439C25.4298 76.9631 26.2149 77.9197 27.2221 78.5928C28.2294 79.2658 29.4136 79.625 30.625 79.625C32.2495 79.625 33.8074 78.9797 34.956 77.831C36.1047 76.6824 36.75 75.1245 36.75 73.5ZM79.625 73.5C79.625 72.2886 79.2658 71.1044 78.5928 70.0971C77.9197 69.0899 76.9631 68.3048 75.8439 67.8412C74.7247 67.3777 73.4932 67.2564 72.3051 67.4927C71.1169 67.729 70.0256 68.3124 69.169 69.169C68.3124 70.0256 67.729 71.1169 67.4927 72.3051C67.2564 73.4932 67.3777 74.7247 67.8412 75.8439C68.3048 76.9631 69.0899 77.9197 70.0971 78.5928C71.1044 79.2658 72.2886 79.625 73.5 79.625C75.1245 79.625 76.6824 78.9797 77.831 77.831C78.9797 76.6824 79.625 75.1245 79.625 73.5ZM91.875 70.4375V49H73.5V61.25C76.2158 61.2526 78.8541 62.1559 81.0016 63.8184C83.1491 65.481 84.6844 67.8089 85.3672 70.4375H91.875Z" fill="black"/>
</g>
<defs>
<clipPath id="clip0_28_9">
<rect width="98" height="98" fill="white"/>
</clipPath>
</defs>
</svg>
