<svg width="98" height="89" viewBox="0 0 98 89" fill="none" xmlns="http://www.w3.org/2000/svg">
<path d="M82.6875 25.0312H12.25V16.6875C12.25 15.9499 11.9273 15.2424 11.353 14.7209C10.7787 14.1993 9.99973 13.9062 9.1875 13.9062C8.37527 13.9062 7.59632 14.1993 7.02199 14.7209C6.44766 15.2424 6.125 15.9499 6.125 16.6875V72.3125C6.125 73.0501 6.44766 73.7576 7.02199 74.2791C7.59632 74.8007 8.37527 75.0938 9.1875 75.0938C9.99973 75.0938 10.7787 74.8007 11.353 74.2791C11.9273 73.7576 12.25 73.0501 12.25 72.3125V61.1875H91.875V72.3125C91.875 73.0501 92.1977 73.7576 92.772 74.2791C93.3463 74.8007 94.1253 75.0938 94.9375 75.0938C95.7497 75.0938 96.5287 74.8007 97.103 74.2791C97.6773 73.7576 98 73.0501 98 72.3125V38.9375C98 35.2493 96.3867 31.7122 93.5151 29.1043C90.6434 26.4964 86.7486 25.0312 82.6875 25.0312ZM12.25 30.5938H39.8125V55.625H12.25V30.5938ZM45.9375 55.625V30.5938H82.6875C85.1242 30.5938 87.4611 31.4728 89.184 33.0376C90.907 34.6023 91.875 36.7246 91.875 38.9375V55.625H45.9375Z" fill="black"/>
</svg>
