<svg width="98" height="89" viewBox="0 0 98 89" fill="none" xmlns="http://www.w3.org/2000/svg">
<path d="M82.6875 30.5938H64.3125V13.9062C64.3125 12.431 63.6672 11.0161 62.5185 9.97297C61.3699 8.9298 59.812 8.34375 58.1875 8.34375H39.8125C38.188 8.34375 36.6301 8.9298 35.4815 9.97297C34.3328 11.0161 33.6875 12.431 33.6875 13.9062V30.5938H15.3125C13.688 30.5938 12.1301 31.1798 10.9815 32.223C9.83281 33.2661 9.1875 34.681 9.1875 36.1562V52.8438C9.1875 54.319 9.83281 55.7339 10.9815 56.777C12.1301 57.8202 13.688 58.4062 15.3125 58.4062H33.6875V75.0938C33.6875 76.569 34.3328 77.9839 35.4815 79.027C36.6301 80.0702 38.188 80.6562 39.8125 80.6562H58.1875C59.812 80.6562 61.3699 80.0702 62.5185 79.027C63.6672 77.9839 64.3125 76.569 64.3125 75.0938V58.4062H82.6875C84.312 58.4062 85.8699 57.8202 87.0185 56.777C88.1672 55.7339 88.8125 54.319 88.8125 52.8438V36.1562C88.8125 34.681 88.1672 33.2661 87.0185 32.223C85.8699 31.1798 84.312 30.5938 82.6875 30.5938ZM82.6875 52.8438H61.25C60.4378 52.8438 59.6588 53.1368 59.0845 53.6584C58.5102 54.1799 58.1875 54.8874 58.1875 55.625V75.0938H39.8125V55.625C39.8125 54.8874 39.4898 54.1799 38.9155 53.6584C38.3412 53.1368 37.5622 52.8438 36.75 52.8438H15.3125V36.1562H36.75C37.5622 36.1562 38.3412 35.8632 38.9155 35.3416C39.4898 34.8201 39.8125 34.1126 39.8125 33.375V13.9062H58.1875V33.375C58.1875 34.1126 58.5102 34.8201 59.0845 35.3416C59.6588 35.8632 60.4378 36.1562 61.25 36.1562H82.6875V52.8438Z" fill="black"/>
</svg>
