<svg width="32" height="32" viewBox="0 0 32 32" fill="none" xmlns="http://www.w3.org/2000/svg">
<path d="M13.2925 25.7076L4.2925 16.7076C4.19952 16.6147 4.12576 16.5044 4.07544 16.383C4.02512 16.2616 3.99921 16.1315 3.99921 16.0001C3.99921 15.8687 4.02512 15.7385 4.07544 15.6171C4.12576 15.4957 4.19952 15.3854 4.2925 15.2926L13.2925 6.29257C13.4801 6.10493 13.7346 5.99951 14 5.99951C14.2654 5.99951 14.5199 6.10493 14.7075 6.29257C14.8951 6.48021 15.0006 6.7347 15.0006 7.00007C15.0006 7.26543 14.8951 7.51993 14.7075 7.70757L7.41375 15.0001L27 15.0001C27.2652 15.0001 27.5196 15.1054 27.7071 15.293C27.8946 15.4805 28 15.7349 28 16.0001C28 16.2653 27.8946 16.5196 27.7071 16.7072C27.5196 16.8947 27.2652 17.0001 27 17.0001L7.41375 17.0001L14.7075 24.2926C14.8951 24.4802 15.0006 24.7347 15.0006 25.0001C15.0006 25.2654 14.8951 25.5199 14.7075 25.7076C14.5199 25.8952 14.2654 26.0006 14 26.0006C13.7346 26.0006 13.4801 25.8952 13.2925 25.7076Z" fill="black"/>
</svg>
