<svg width="46" height="46" viewBox="0 0 46 46" fill="none" xmlns="http://www.w3.org/2000/svg">
<path d="M7.66667 11.5L19.373 20.3402L19.3769 20.3434C20.6767 21.2966 21.327 21.7735 22.0393 21.9577C22.6689 22.1206 23.3306 22.1206 23.9602 21.9577C24.6731 21.7733 25.3253 21.2951 26.6274 20.3402C26.6274 20.3402 34.136 14.578 38.3333 11.5M5.75 30.2837V15.717C5.75 13.5702 5.75 12.4959 6.16781 11.6759C6.53532 10.9546 7.12132 10.3686 7.84261 10.0011C8.66261 9.58331 9.73684 9.58331 11.8837 9.58331H34.117C36.2639 9.58331 37.3358 9.58331 38.1558 10.0011C38.8771 10.3686 39.4651 10.9546 39.8326 11.6759C40.25 12.4951 40.25 13.5681 40.25 15.7107V30.2902C40.25 32.4328 40.25 33.5042 39.8326 34.3234C39.4651 35.0447 38.8771 35.6317 38.1558 35.9992C37.3367 36.4166 36.2653 36.4166 34.1226 36.4166H11.8774C9.73474 36.4166 8.6618 36.4166 7.84261 35.9992C7.12132 35.6317 6.53532 35.0447 6.16781 34.3234C5.75 33.5034 5.75 32.4306 5.75 30.2837Z" stroke="#616161" stroke-width="2" stroke-linecap="round" stroke-linejoin="round"/>
</svg>
