<svg width="46" height="46" viewBox="0 0 46 46" fill="none" xmlns="http://www.w3.org/2000/svg">
<path d="M18.2131 8.15967C17.6309 6.70431 16.2214 5.75 14.6539 5.75H9.38158C7.37591 5.75 5.75 7.37552 5.75 9.38118C5.75 26.4293 19.5707 40.25 36.6188 40.25C38.6245 40.25 40.25 38.6239 40.25 36.6183L40.2509 31.3451C40.2509 29.7776 39.2968 28.3683 37.8415 27.7862L32.7883 25.7656C31.481 25.2427 29.9926 25.4781 28.9109 26.3794L27.6067 27.4671C26.0837 28.7364 23.8426 28.6354 22.4407 27.2335L18.7684 23.5579C17.3665 22.1559 17.2629 19.9167 18.5321 18.3936L19.6196 17.0896C20.521 16.0079 20.7584 14.5191 20.2355 13.2118L18.2131 8.15967Z" stroke="#616161" stroke-width="2" stroke-linecap="round" stroke-linejoin="round"/>
</svg>
