<svg width="98" height="89" viewBox="0 0 98 89" fill="none" xmlns="http://www.w3.org/2000/svg">
<path d="M97.843 65.8704C97.7159 65.5239 97.5148 65.2035 97.2513 64.9276C96.9878 64.6516 96.667 64.4255 96.3072 64.2621C95.9475 64.0988 95.5558 64.0014 95.1546 63.9755C94.7534 63.9496 94.3505 63.9958 93.969 64.1113L87.3004 66.1312L76.2371 46.0366C75.9828 45.5751 75.5921 45.1869 75.1087 44.9155C74.6253 44.6442 74.0683 44.5003 73.5 44.5H42.875V36.1563H64.3125C65.1247 36.1563 65.9037 35.8632 66.478 35.3416C67.0523 34.8201 67.375 34.1126 67.375 33.375C67.375 32.6374 67.0523 31.93 66.478 31.4084C65.9037 30.8868 65.1247 30.5938 64.3125 30.5938H42.875V27.4649C45.7619 26.7879 48.2778 25.178 49.9512 22.937C51.6246 20.6959 52.3406 17.9775 51.9649 15.2913C51.5892 12.6051 50.1476 10.1356 47.9105 8.34564C45.6733 6.55566 42.7941 5.56812 39.8125 5.56812C36.8309 5.56812 33.9517 6.55566 31.7145 8.34564C29.4774 10.1356 28.0358 12.6051 27.6601 15.2913C27.2844 17.9775 28.0004 20.6959 29.6738 22.937C31.3472 25.178 33.8631 26.7879 36.75 27.4649V31.223C30.1467 32.5936 24.3304 36.1245 20.4112 41.1417C16.4919 46.1589 14.7442 52.3111 15.5016 58.424C16.2591 64.5369 19.4685 70.1825 24.5175 74.2832C29.5665 78.3839 36.1014 80.6526 42.875 80.6563C55.7069 80.6563 67.2563 72.761 70.3418 61.8828C70.4423 61.529 70.4652 61.1606 70.409 60.7988C70.3527 60.437 70.2186 60.0887 70.0142 59.774C69.8098 59.4592 69.5392 59.1841 69.2177 58.9644C68.8962 58.7446 68.5302 58.5845 68.1406 58.4932C67.751 58.4019 67.3454 58.3811 66.947 58.4322C66.5486 58.4832 66.1651 58.605 65.8185 58.7907C65.472 58.9763 65.169 59.2221 64.927 59.514C64.685 59.806 64.5087 60.1384 64.4082 60.4922C62.0501 68.8359 52.7937 75.0938 42.875 75.0938C37.7269 75.0922 32.7514 73.4082 28.8578 70.3496C24.9642 67.2911 22.4126 63.0622 21.6693 58.4358C20.9261 53.8095 22.0408 49.0948 24.8098 45.1534C27.5788 41.212 31.817 38.3071 36.75 36.9698V47.2813C36.75 48.0189 37.0727 48.7263 37.647 49.2479C38.2213 49.7695 39.0003 50.0625 39.8125 50.0625H71.6051L83.0091 70.7759C83.3395 71.3743 83.8966 71.8444 84.578 72.0999C85.2594 72.3553 86.0194 72.379 86.7185 72.1665L95.906 69.3852C96.6758 69.152 97.3121 68.6508 97.6753 67.9918C98.0384 67.3328 98.0988 66.5698 97.843 65.8704ZM33.6875 16.6875C33.6875 15.5873 34.0467 14.5119 34.7197 13.5971C35.3928 12.6824 36.3494 11.9694 37.4686 11.5484C38.5878 11.1274 39.8193 11.0173 41.0074 11.2319C42.1956 11.4465 43.2869 11.9763 44.1435 12.7542C45.0001 13.5322 45.5835 14.5233 45.8198 15.6023C46.0561 16.6813 45.9349 17.7998 45.4713 18.8162C45.0077 19.8326 44.2226 20.7013 43.2154 21.3126C42.2081 21.9238 41.0239 22.25 39.8125 22.25C38.188 22.25 36.6301 21.664 35.4815 20.6208C34.3328 19.5776 33.6875 18.1628 33.6875 16.6875Z" fill="black"/>
</svg>
